<?xml version="1.0" encoding="utf-8"?>
<!-- Generator: Adobe Illustrator 25.0.1, SVG Export Plug-In . SVG Version: 6.00 Build 0)  -->
<svg version="1.1" id="Calque_1" xmlns="http://www.w3.org/2000/svg" xmlns:xlink="http://www.w3.org/1999/xlink" x="0px" y="0px"
	 viewBox="0 0 500 500" style="enable-background:new 0 0 500 500;" xml:space="preserve">
<style type="text/css">
	.st0{fill:#F7E1CA;}
</style>
<g>
	<path class="st0" d="M271.78,58.38V42.26h175.2v16.11c-13.09,1.76-26.42,5.67-39.99,11.72c-13.58,6.06-27,13.82-40.28,23.29
		c-13.29,9.48-28.32,21.44-45.12,35.89l-70.61,62.4l155.27,194.24c11.52,14.46,20.7,25,27.54,31.64
		c6.83,6.64,13.81,11.67,20.95,15.09c7.13,3.42,15.38,5.71,24.76,6.88v16.11H282.62v-16.11c31.25,0,46.88-7.03,46.88-21.09
		c0-4.88-1.57-9.91-4.69-15.09c-3.13-5.17-7.32-10.99-12.6-17.43L196.2,240.9l-36.62,32.81v112.21c0,16.02,2.39,28.23,7.18,36.62
		c4.78,8.4,13.43,13.28,25.93,14.65c6.45,0.39,11.76,0.83,15.97,1.32c4.2,0.49,7.86,0.83,10.99,1.03v16.11H19.83v-16.11h9.08
		c17.18,0,29.88-2.05,38.09-6.15s13.48-10.01,15.82-17.72c2.34-7.71,3.52-18.02,3.52-30.91V109.35c0-13.08-1.46-23.09-4.39-30.03
		c-2.93-6.93-9.13-12.16-18.6-15.67c-9.48-3.52-23.98-5.27-43.51-5.27V42.26h199.8v16.11h-4.1c-22.85,0-37.89,3.62-45.12,10.84
		c-7.23,7.23-10.84,19.44-10.84,36.62v145.9l118.95-106.35c13.28-11.91,23.29-22.41,30.03-31.49s10.11-17.72,10.11-25.93
		c0-8.79-3.08-15.92-9.23-21.39c-6.15-5.47-14.9-8.2-26.22-8.2H271.78z M114.75,388.55V111.7c0-21.48-2.34-35.79-7.03-42.92
		c-4.69-7.13-16.02-10.59-33.98-10.4c9.57,4.3,15.67,9.57,18.31,15.82C94.68,80.45,96,94.61,96,116.68v276.56
		c0,14.65-1.61,25-4.83,31.05c-3.22,6.06-9.81,11.13-19.78,15.23h7.32c11.91,0,20.41-1.9,25.49-5.71c5.08-3.81,8.1-8.98,9.08-15.53
		C114.26,411.75,114.75,401.84,114.75,388.55z M335.94,370.97L217.29,222.15l-13.18,12.01l110.45,140.63
		c8.4,10.16,14.6,18.56,18.6,25.2c4,6.64,6.01,13.18,6.01,19.63c0,8.4-4.79,15.04-14.36,19.92h7.62c7.81,0,14.16-2.34,19.04-7.03
		c4.88-4.69,7.32-10.15,7.32-16.41C358.79,404.96,351.18,389.92,335.94,370.97z M383.4,58.38h-68.85
		c9.18,7.62,13.77,16.02,13.77,25.2c0,5.86-1.46,11.92-4.39,18.16c13.28-12.11,23.73-21.14,31.35-27.1
		C362.89,68.68,372.27,63.26,383.4,58.38z"/>
</g>
</svg>
